<svg xmlns="http://www.w3.org/2000/svg" viewBox="0 0 512 512"><circle cx="256" cy="256" r="256" fill="#cf4c3c"/><path d="M372.97 215.509l-36.521 43.939-68.763-71.518h-95.008l-38.453 41.637v89.912L318.85 504.217c83.594-21.102 150.816-83.318 178.916-163.887L372.97 215.509z" fill="#ad3228"/><path d="M212.289 275.344h45.789c-8.037 22.721-29.806 39.012-55.287 38.826-30.92-.228-56.491-24.964-57.689-55.863-1.286-33.12 25.285-60.478 58.123-60.478 15.017 0 28.72 5.723 39.05 15.098 2.448 2.22 6.17 2.236 8.578-.031l16.818-15.825c2.631-2.476 2.639-6.658.016-9.14-16.382-15.524-38.359-25.198-62.595-25.669-51.69-1.012-95.261 41.37-95.62 93.07-.365 52.09 41.75 94.429 93.753 94.429 50.014 0 90.869-39.159 93.605-88.485.072-.619.121-21.52.121-21.52H212.29a6.282 6.282 0 0 0-6.282 6.282v23.024a6.281 6.281 0 0 0 6.281 6.282z" fill="#fff"/><path d="M374.531 241.847V219.35a5.502 5.502 0 0 0-5.504-5.504h-18.934a5.504 5.504 0 0 0-5.506 5.504v22.497h-22.492a5.508 5.508 0 0 0-5.51 5.506v18.932a5.51 5.51 0 0 0 5.51 5.506h22.492v22.494a5.505 5.505 0 0 0 5.506 5.506h18.934a5.504 5.504 0 0 0 5.504-5.506v-22.494h22.497a5.508 5.508 0 0 0 5.506-5.506v-18.932a5.507 5.507 0 0 0-5.506-5.506h-22.497z" fill="#d1d1d1"/></svg>