<svg xmlns="http://www.w3.org/2000/svg" viewBox="0 0 512 512"><path d="M50.918 445.739c1.143 0 2.295-.23 3.405-.717 27.221-11.853 73.19-18.022 136.678-18.347l6.161 12.339c2.116 4.216 7.245 5.939 11.452 3.814 4.215-2.108 5.931-7.228 3.814-11.443l-8.525-17.067a8.542 8.542 0 0 0-7.637-4.719c-69.538 0-118.204 6.468-148.762 19.772-4.318 1.886-6.289 6.912-4.412 11.238a8.539 8.539 0 0 0 7.826 5.13z"/><path d="M494.933 460.8h-17.067v-42.667a8.55 8.55 0 0 0-2.5-6.033l-51.268-51.26c1.604-3.337 2.569-7.031 2.569-10.974 0-14.114-11.486-25.6-25.6-25.6s-25.6 11.486-25.6 25.6 11.486 25.6 25.6 25.6c3.942 0 7.629-.964 10.965-2.56l48.768 48.759V460.8H17.067C7.654 460.8 0 468.454 0 477.867v25.6C0 508.177 3.823 512 8.533 512s8.533-3.823 8.533-8.533v-25.6h477.867v25.6a8.53 8.53 0 0 0 8.533 8.533 8.53 8.53 0 0 0 8.533-8.533v-25.6c.001-9.413-7.662-17.067-17.066-17.067zm-93.866-102.4c-4.71 0-8.533-3.831-8.533-8.533s3.823-8.533 8.533-8.533 8.533 3.831 8.533 8.533-3.823 8.533-8.533 8.533z"/><path d="M121.83 255.249c6.221 16.196 26.803 68.42 41.737 90.82l1.348 2.039c10.957 16.614 29.286 44.424 91.085 44.424 61.79 0 80.128-27.81 91.085-44.424l1.348-2.039c14.933-22.4 35.507-74.624 41.737-90.82 11.145-2.773 19.43-12.86 19.43-24.849v-34.133c0-11.127-7.134-20.617-17.067-24.141V128c0-33.69-17.741-95.923-83.362-101.931-.128-4.028-1.459-7.27-2.944-9.668C297.839 2.842 274.287 0 256 0 104.158 0 102.4 143.616 102.4 145.067c0 4.71 3.814 8.525 8.516 8.525h.017c4.702 0 8.516-3.806 8.533-8.516.017-5.222 1.937-128.009 136.533-128.009 24.132 0 33.801 5.222 35.712 8.311.265.435.99 1.604-.683 4.941a8.538 8.538 0 0 0 .375 8.303 8.557 8.557 0 0 0 7.262 4.045c75.657 0 76.791 81.86 76.8 85.333v51.2a8.53 8.53 0 0 0 8.533 8.533c4.71 0 8.533 3.831 8.533 8.533V230.4c0 4.702-3.823 8.533-8.533 8.533a8.55 8.55 0 0 0-7.996 5.538c-.247.674-25.446 67.644-41.771 92.126l-1.399 2.116c-10.223 15.514-24.235 36.753-76.834 36.753-52.608 0-66.611-21.239-76.834-36.753l-1.399-2.116c-16.324-24.482-41.523-91.452-41.779-92.126a8.53 8.53 0 0 0-7.987-5.538c-4.702 0-8.533-3.831-8.533-8.533v-34.133c0-2.313.922-4.412 2.423-5.948 3.098 6.955 9.421 13.21 20.045 14.268l29.201 21.897C173.414 243.106 187.554 256 204.8 256h17.067C240.691 256 256 240.691 256 221.867 256 240.691 271.309 256 290.133 256H307.2c17.237 0 31.394-12.894 33.664-29.525l31.189-23.381a8.527 8.527 0 0 0 1.707-11.947c-2.825-3.772-8.175-4.548-11.947-1.707l-21.751 16.316c-3.251-10.402-12.86-18.022-24.329-18.022H281.6c-14.114 0-25.6 11.486-25.6 25.6 0-14.114-11.486-25.6-25.6-25.6h-34.133c-11.46 0-21.069 7.62-24.328 18.022l-16.282-12.211c6.716-16.23 12.8-40.235 14.524-57.088 26.897-.478 104.713-3.763 139.332-25.37 7.851 30.31 33.05 55.817 34.321 57.08a8.525 8.525 0 0 0 12.066 0 8.525 8.525 0 0 0 0-12.066c-.316-.316-31.633-31.983-31.633-62.234a8.541 8.541 0 0 0-6.255-8.226c-3.678-1.024-7.629.546-9.591 3.831-12.425 20.693-93.022 29.995-146.287 29.995a8.536 8.536 0 0 0-8.533 8.533c0 13.85-6.545 41.515-13.508 58.539-2.722-1.638-3.49-4.693-3.558-7.339a8.536 8.536 0 0 0-8.533-8.533c-14.114 0-25.6 11.486-25.6 25.6V230.4c-.002 11.989 8.284 22.076 19.428 24.849zm151.237-41.916c0-4.702 3.823-8.533 8.533-8.533h34.133c4.71 0 8.533 3.831 8.533 8.533v8.533c0 9.412-7.654 17.067-17.067 17.067h-17.067c-9.412 0-17.067-7.654-17.067-17.067v-8.533zm-85.334 0c0-4.702 3.831-8.533 8.533-8.533H230.4c4.702 0 8.533 3.831 8.533 8.533v8.533c0 9.412-7.654 17.067-17.067 17.067H204.8c-9.412 0-17.067-7.654-17.067-17.067v-8.533z"/><path d="M298.658 307.226c.009-4.702-3.797-8.533-8.499-8.559-.162 0-15.42-.171-30.345-7.637a8.566 8.566 0 0 0-7.629 0c-14.925 7.467-30.191 7.637-30.319 7.637-4.71 0-8.533 3.823-8.533 8.533s3.823 8.533 8.533 8.533c.725 0 16.845-.094 34.133-7.654 17.28 7.56 33.408 7.654 34.133 7.654 4.703 0 8.509-3.806 8.526-8.507zm17.05 102.724a8.568 8.568 0 0 0-7.578 4.659l-8.533 16.708c-2.142 4.198-.469 9.344 3.721 11.486a8.522 8.522 0 0 0 3.874.93 8.541 8.541 0 0 0 7.612-4.651l6.153-12.066c46.643.128 84.207 3.618 111.735 10.377a8.508 8.508 0 0 0 10.317-6.246 8.525 8.525 0 0 0-6.246-10.325c-29.885-7.348-70.418-11.171-121.055-10.872zm-68.241 8.183V435.2c0 4.71 3.823 8.533 8.533 8.533s8.533-3.823 8.533-8.533v-17.067c0-4.71-3.823-8.533-8.533-8.533s-8.533 3.823-8.533 8.533zm0-93.866a8.536 8.536 0 0 0-8.533 8.533 8.536 8.536 0 0 0 8.533 8.533h17.067a8.53 8.53 0 0 0 8.533-8.533 8.53 8.53 0 0 0-8.533-8.533h-17.067z"/></svg>