<svg xmlns="http://www.w3.org/2000/svg" viewBox="0 0 512 512"><circle cx="256" cy="256" r="256" fill="#65a2d9"/><path d="M393.014 139.326c-26.703 23.169-53.253 43.475-74.954 71.852-53.381 64.372-118.613 155.7-207.386 142.086l158.61 158.396c134.456-6.873 241.497-117.493 242.686-253.376L393.014 139.326z" fill="#3a7ca5"/><path d="M397.872 162.471a115.847 115.847 0 0 1-20.208 6.815 62.977 62.977 0 0 0 16.631-26.484c.926-2.893-2.219-5.398-4.832-3.848a116.572 116.572 0 0 1-30.894 12.762c-.628.16-1.276.24-1.929.24a8.195 8.195 0 0 1-5.411-2.065 63.176 63.176 0 0 0-41.805-15.777c-6.672 0-13.405 1.04-20.016 3.091-20.487 6.353-36.295 23.254-41.257 44.103-1.86 7.818-2.362 15.648-1.496 23.264a2.268 2.268 0 0 1-.569 1.772 2.35 2.35 0 0 1-1.969.781c-44.846-4.168-85.287-25.772-113.869-60.837-1.455-1.789-4.253-1.569-5.415.422-5.596 9.606-8.554 20.589-8.554 31.766a63.123 63.123 0 0 0 18.837 45.039 56.639 56.639 0 0 1-14.414-5.582c-2.188-1.214-4.877.35-4.908 2.851-.31 25.445 14.588 48.087 36.905 58.282a56.578 56.578 0 0 1-11.995-1.001c-2.463-.467-4.532 1.867-3.768 4.253 7.246 22.618 26.717 39.288 50.021 43.07-19.339 12.983-41.863 19.83-65.302 19.83l-7.306-.003c-2.255 0-4.16 1.469-4.73 3.65-.565 2.145.474 4.413 2.396 5.53 26.412 15.372 56.541 23.495 87.138 23.495 26.784 0 51.838-5.313 74.466-15.798 20.745-9.609 39.076-23.345 54.486-40.827 14.357-16.286 25.581-35.085 33.365-55.879 7.418-19.816 11.34-40.967 11.34-61.154v-.964c0-3.241 1.465-6.291 4.024-8.37a124.916 124.916 0 0 0 25.122-27.572c1.84-2.748-1.06-6.196-4.084-4.855z" fill="#fff"/><path d="M397.872 162.471a115.904 115.904 0 0 1-20.208 6.815 62.989 62.989 0 0 0 16.632-26.484c.926-2.893-2.219-5.398-4.832-3.848a116.572 116.572 0 0 1-30.894 12.762c-.628.16-1.276.24-1.929.24a8.195 8.195 0 0 1-5.411-2.065 63.176 63.176 0 0 0-41.805-15.777c-6.671 0-13.405 1.04-20.016 3.091-14.322 4.441-26.343 14.048-33.985 26.546v205.477a164.729 164.729 0 0 0 18.198-7.139c20.745-9.609 39.076-23.345 54.486-40.827 14.357-16.287 25.581-35.085 33.365-55.879 7.418-19.816 11.34-40.967 11.34-61.154v-.964c0-3.241 1.465-6.291 4.024-8.37a124.916 124.916 0 0 0 25.122-27.572c1.837-2.745-1.063-6.193-4.087-4.852z" fill="#d1d1d1"/></svg>