<svg xmlns="http://www.w3.org/2000/svg" xmlns:xlink="http://www.w3.org/1999/xlink" width="134" height="40" viewBox="0 0 134 40"><defs><path id="gqoka" d="M109.01 76.07a12.87 12.87 0 0 0 12.88 11.84c6.8 0 12.37-5.22 12.87-11.84z"/><path id="gqokc" d="M96.13 60.02h25.75a12.87 12.87 0 0 0-12.87-11.84c-6.8 0-12.38 5.22-12.88 11.84"/><path id="gqoke" d="M96.13 62.13a12.87 12.87 0 0 0 12.88 11.84h25.75a12.87 12.87 0 0 0-12.88-11.84z"/><path id="gqokg" d="M150.69 78.54c-2.86 0-5-.44-6.45-1.32a.35.35 0 0 1-.16-.34l.35-3.33c.03-.25.3-.39.53-.26l.73.4a13.36 13.36 0 0 0 3.2 1.06 8.3 8.3 0 0 0 1.64.17c1.1 0 1.87-.2 2.31-.62a2 2 0 0 0 .67-1.51c0-.57-.16-1-.47-1.3-.32-.3-.77-.56-1.36-.78-.58-.22-1.3-.45-2.13-.7-.84-.24-1.78-.63-2.82-1.14a4.73 4.73 0 0 1-1.77-1.62 5.84 5.84 0 0 1-.3-4.97c.28-.73.7-1.39 1.28-1.96a6.37 6.37 0 0 1 2.22-1.38 10.8 10.8 0 0 1 4.9-.44c.43.05.87.11 1.3.2 1.35.3 2.36.64 3.04 1.04.12.07.18.2.16.33l-.34 3.27a.35.35 0 0 1-.55.24 9.5 9.5 0 0 0-1.87-1.06c-.47-.2-.97-.35-1.49-.47a7.02 7.02 0 0 0-1.53-.17c-.94 0-1.72.17-2.33.52-.61.35-.92.89-.92 1.61 0 .62.2 1.09.6 1.4a6.41 6.41 0 0 0 1.65.86l.65.19.76.21c.36.1.63.16.8.22.82.23 1.56.5 2.22.81a6 6 0 0 1 1.7 1.17c.48.46.84 1.02 1.09 1.67.24.64.37 1.4.37 2.29 0 3.8-2.56 5.7-7.68 5.7"/><path id="gqokh" d="M177.94 69.49h-11.97c-.23 0-.4.2-.36.42.31 1.47.97 2.6 2 3.38a6.08 6.08 0 0 0 3.79 1.29 14.53 14.53 0 0 0 4.64-.95c.34-.13.65-.26.95-.4.22-.11.48.05.5.3l.19 3.3c0 .14-.07.27-.2.34a14.17 14.17 0 0 1-6.34 1.37c-1.72 0-3.24-.26-4.56-.78a9.68 9.68 0 0 1-3.33-2.12 8.68 8.68 0 0 1-2.04-3.18 11.32 11.32 0 0 1-.69-3.98c0-1.4.22-2.7.65-3.92a9.68 9.68 0 0 1 1.86-3.2 8.5 8.5 0 0 1 2.96-2.16 9.59 9.59 0 0 1 3.94-.78c1.23 0 2.37.2 3.43.6a7.76 7.76 0 0 1 4.55 4.37 8.9 8.9 0 0 1 .64 3.46c0 .65-.08 1.44-.25 2.35a.36.36 0 0 1-.36.29m-11.82-3.25h7.11c.2 0 .38-.17.36-.37a4.34 4.34 0 0 0-.85-2.32c-.58-.78-1.47-1.17-2.68-1.17-1.2 0-2.17.35-2.9 1.05a5.2 5.2 0 0 0-1.39 2.36c-.06.22.11.45.35.45"/><path id="gqoki" d="M198.71 74.58l-.4 3.64a.35.35 0 0 1-.35.32h-1.45c-1.93 0-3.32-.63-4.17-1.9-.12-.17-.38-.18-.54-.03-1.34 1.29-3.24 1.93-5.68 1.93-.8 0-1.56-.14-2.25-.41a5.27 5.27 0 0 1-3-3 6.43 6.43 0 0 1-.43-2.42c0-1.32.4-2.42 1.18-3.3a8.84 8.84 0 0 1 2.86-2.12c1.12-.53 2.32-.9 3.59-1.14 1.11-.2 2.12-.33 3.03-.38.2 0 .35-.18.33-.37-.09-.98-.37-1.68-.84-2.1-.52-.48-1.4-.72-2.66-.72-1.43 0-3.07.42-4.92 1.26a.36.36 0 0 1-.5-.28l-.36-3.18a.36.36 0 0 1 .21-.36 16.61 16.61 0 0 1 6.9-1.6c4.73 0 7.1 2.6 7.1 7.8v5.25c0 .7.02 1.25.06 1.67.04.41.11.73.23.95.12.22.3.36.53.4.24.06.54.09.9.09zm-7.21-1.3v-3.87c0-.2-.19-.38-.4-.36-.62.06-1.22.15-1.82.28-.72.16-1.35.39-1.9.68-.55.3-1 .66-1.33 1.07-.34.41-.51.9-.51 1.44 0 1.55.87 2.33 2.62 2.33 1.18 0 2.25-.43 3.22-1.3a.37.37 0 0 0 .12-.26z"/><path id="gqokj" d="M208.58 74.97l-.35 3.25a.36.36 0 0 1-.36.31h-1.44c-1.67 0-2.93-.47-3.77-1.41a5.33 5.33 0 0 1-1.25-3.67V49.38c0-.2.16-.36.36-.36h4.14c.2 0 .36.16.36.36v22.09c0 .75.02 1.33.06 1.74.04.42.14.72.3.92.15.2.39.31.7.37.24.03.54.06.9.07.21 0 .37.19.35.4"/><path id="gqokk" d="M229.05 78.15h-3.9a.35.35 0 0 1-.36-.33l-.05-.76a8.4 8.4 0 0 1-4.78 1.47c-1.55 0-2.91-.25-4.1-.77a8.4 8.4 0 0 1-3-2.16 9.68 9.68 0 0 1-1.86-3.2 11.66 11.66 0 0 1-.65-3.92c0-1.4.22-2.72.67-3.95a9.52 9.52 0 0 1 1.9-3.2 8.73 8.73 0 0 1 3.02-2.14 9.97 9.97 0 0 1 4.02-.77c1.52 0 2.88.32 4.07.97.23.13.51-.05.51-.3v-9.72c0-.2.16-.35.35-.35h4.16c.2 0 .35.16.35.35V77.8c0 .19-.15.35-.35.35m-8.76-15.77c-1.56 0-2.77.55-3.63 1.65-.86 1.1-1.3 2.58-1.3 4.45 0 1.86.44 3.34 1.3 4.44a4.34 4.34 0 0 0 3.63 1.65c1.5 0 2.63-.54 3.37-1.63.75-1.09 1.12-2.57 1.12-4.46 0-1.9-.37-3.38-1.12-4.47-.74-1.09-1.86-1.63-3.37-1.63"/><linearGradient id="gqokb" x1="109.01" x2="134.76" y1="81.99" y2="81.99" gradientUnits="userSpaceOnUse"><stop offset="0" stop-color="#17b3fb"/><stop offset="1" stop-color="#01dbf9"/></linearGradient><linearGradient id="gqokd" x1="96.13" x2="121.88" y1="54.1" y2="54.1" gradientUnits="userSpaceOnUse"><stop offset="0" stop-color="#445dfb"/><stop offset="1" stop-color="#2d8cfb"/></linearGradient><linearGradient id="gqokf" x1="96.13" x2="134.76" y1="68.05" y2="68.05" gradientUnits="userSpaceOnUse"><stop offset="0" stop-color="#2d8cfb"/><stop offset="1" stop-color="#17b3fb"/></linearGradient></defs><g><g clip-path="url(#clip-4985B665-BC04-94D7-26F6-0F8B1F6747E2)" transform="translate(-96 -48)"><use fill="url(#gqokb)" xlink:href="#gqoka"/></g><g clip-path="url(#clip-19029415-552F-638B-965F-953BAAA220C7)" transform="translate(-96 -48)"><use fill="url(#gqokd)" xlink:href="#gqokc"/></g><g clip-path="url(#clip-6543AFAE-0436-D631-7905-DF4E2422D3A6)" transform="translate(-96 -48)"><use fill="url(#gqokf)" xlink:href="#gqoke"/></g><g transform="translate(-96 -48)"><use fill="#222326" xlink:href="#gqokg"/></g><g transform="translate(-96 -48)"><use fill="#222326" xlink:href="#gqokh"/></g><g transform="translate(-96 -48)"><use fill="#222326" xlink:href="#gqoki"/></g><g transform="translate(-96 -48)"><use fill="#222326" xlink:href="#gqokj"/></g><g clip-path="url(#clip-984E78B4-3890-0CAD-4ACB-72F97455B8C3)" transform="translate(-96 -48)"><use fill="#222326" xlink:href="#gqokk"/></g></g></svg>